<svg width="65" height="65" viewBox="0 0 65 65" fill="none" xmlns="http://www.w3.org/2000/svg">
<g clip-path="url(#clip0)">
<path d="M63.9788 40.4095C59.6382 57.8204 42.0038 68.4163 24.5909 64.0746C7.18523 59.734 -3.41069 42.0985 0.931823 24.689C5.27053 7.27623 22.9049 -3.32049 40.3125 1.02012C57.7242 5.36073 68.3194 22.9981 63.9784 40.4098L63.9787 40.4095H63.9788Z" fill="#F7931A"/>
<path d="M46.831 27.8695C47.4779 23.5445 44.1851 21.2196 39.6825 19.6687L41.1432 13.8101L37.5768 12.9214L36.1549 18.6258C35.2173 18.392 34.2545 18.1716 33.2975 17.9532L34.7298 12.2112L31.1657 11.3225L29.7042 17.1793C28.9283 17.0026 28.1663 16.828 27.427 16.6441L27.4311 16.6256L22.513 15.3975L21.5644 19.2066C21.5644 19.2066 24.2103 19.8131 24.1545 19.8504C25.5987 20.2109 25.8598 21.1669 25.8165 21.9246L24.1526 28.599C24.2521 28.6243 24.381 28.6608 24.5234 28.718C24.4044 28.6884 24.2778 28.6562 24.1464 28.6247L21.8142 37.9746C21.6377 38.4134 21.1898 39.0718 20.1801 38.8218C20.2158 38.8736 17.588 38.1749 17.588 38.1749L15.8174 42.2572L20.4584 43.4142C21.3218 43.6307 22.1679 43.8572 23.0011 44.0703L21.5253 49.9961L25.0875 50.8847L26.549 45.0218C27.5221 45.286 28.4665 45.5297 29.3911 45.7594L27.9345 51.5947L31.501 52.4833L32.9766 46.5686C39.058 47.7195 43.6307 47.2555 45.5554 41.7549C47.1063 37.3263 45.4782 34.7719 42.2788 33.1061C44.6091 32.5687 46.3643 31.036 46.8323 27.87L46.8312 27.8692L46.831 27.8695ZM38.6828 39.2955C37.5806 43.7241 30.1242 41.3301 27.7067 40.7298L29.6651 32.8791C32.0824 33.4826 39.8347 34.6769 38.6829 39.2955H38.6828ZM39.7857 27.8054C38.7803 31.8337 32.5743 29.7871 30.5611 29.2853L32.3366 22.1651C34.3498 22.667 40.8331 23.6036 39.786 27.8054H39.7857Z" fill="white"/>
</g>
<defs>
<clipPath id="clip0">
<rect width="65" height="65" fill="white"/>
</clipPath>
</defs>
</svg>
